<svg width="262" height="227" viewBox="0 0 262 227" fill="none" xmlns="http://www.w3.org/2000/svg">
<g clip-path="url(#clip0_298_618)">
<path d="M113.361 77.5137C107.083 77.3055 100.805 77.0813 94.5272 76.8731C96.4046 70.6592 98.2969 64.4453 100.174 58.2153C106.467 58.3435 112.76 58.4876 119.068 58.6157C117.16 64.9097 115.268 71.2037 113.361 77.4977V77.5137Z" fill="#10114A"/>
<path d="M136.009 78.5867C129.731 78.3785 123.453 78.1543 117.175 77.9461C119.053 71.7322 120.945 65.5183 122.822 59.2883C129.115 59.4165 135.408 59.5606 141.716 59.6887C139.808 65.9827 137.916 72.2767 136.009 78.5707V78.5867Z" fill="#FFB387"/>
<path d="M206.791 81.3733L187.958 80.7327C189.835 74.5188 191.728 68.3049 193.605 62.075C199.898 62.2031 206.191 62.3472 212.499 62.4753C210.591 68.7693 208.699 75.0633 206.791 81.3573V81.3733Z" fill="#10114A"/>
<path d="M183.077 80.6687C176.799 80.4605 170.521 80.2363 164.244 80.0281C166.121 73.8142 168.013 67.6003 169.891 61.3704C176.183 61.4985 182.476 61.6426 188.784 61.7707C186.877 68.0647 184.984 74.3587 183.077 80.6527V80.6687Z" fill="#FFB387"/>
<path d="M145.14 126.184C138.862 125.976 132.584 125.752 126.307 125.543C128.184 119.33 130.076 113.116 131.954 106.886C138.246 107.014 144.539 107.158 150.847 107.286C148.94 113.58 147.047 119.874 145.14 126.168V126.184Z" fill="#10114A"/>
<path d="M192.539 106.453C188.559 106.325 184.564 106.181 180.584 106.053C182.461 99.8389 184.354 93.6249 186.231 87.395C192.524 87.5231 198.817 87.6673 205.124 87.7954C204.839 89.2368 204.539 90.3739 204.328 91.1426C203.998 92.2797 203.938 92.3277 203.623 93.4808C203.337 94.5218 203.232 95.0823 202.842 96.4917C202.451 97.901 202.346 98.1092 202.211 98.3014C201.85 98.8139 201.55 98.91 200.559 99.7748C200.108 100.159 199.943 100.335 199.462 100.784C197.315 102.818 194.852 104.724 194.641 104.9C194.146 105.284 193.44 105.829 192.539 106.469V106.453Z" fill="#FFB387"/>
<path d="M175.628 104.676L156.794 104.035C158.672 97.821 160.564 91.6071 162.441 85.3772C168.734 85.5053 175.027 85.6495 181.335 85.7776C179.428 92.0716 177.535 98.3656 175.628 104.66V104.676Z" fill="#10114A"/>
<path d="M151.989 103.571C145.711 103.362 139.433 103.138 133.155 102.93C135.032 96.7161 136.925 90.5021 138.802 84.2722C145.095 84.4003 151.388 84.5445 157.696 84.6726C155.788 90.9666 153.896 97.2606 151.989 103.555V103.571Z" fill="#FFB387"/>
<path d="M129.416 101.985C123.138 101.777 116.86 101.552 110.582 101.344C112.459 95.1304 114.352 88.9165 116.229 82.6865C122.522 82.8146 128.815 82.9588 135.123 83.0869C133.215 89.3809 131.323 95.6749 129.416 101.969V101.985Z" fill="#10114A"/>
<path d="M106.782 100.656C100.505 100.448 94.2269 100.223 87.9491 100.015C89.8264 93.8013 91.7188 87.5873 93.5961 81.3574C99.8889 81.4855 106.182 81.6297 112.49 81.7578C110.582 88.0518 108.69 94.3458 106.782 100.64V100.656Z" fill="#FFB387"/>
<path d="M176.514 120.034C177.535 116.655 178.571 113.276 179.593 109.896C182.401 109.945 185.21 110.009 188.033 110.057C184.188 113.388 180.359 116.703 176.514 120.034Z" fill="#10114A"/>
<path d="M166.872 128.074C161.075 127.802 155.278 127.529 149.465 127.257C151.343 121.043 153.235 114.829 155.112 108.599C161.405 108.727 167.698 108.872 174.006 109C173.06 112.075 172.113 115.182 171.182 118.321C170.371 121.059 169.575 123.782 168.809 126.488C168.164 127.017 167.518 127.529 166.872 128.058V128.074Z" fill="#FFB387"/>
<path d="M208.188 92.3118C204.599 96.1074 198.832 101.969 191.277 108.631C185.735 113.532 182.206 116.223 172.068 124.422C167.443 128.154 160.609 133.711 152.229 140.646C146.867 144.954 142.767 147.917 141.43 148.637C140.469 149.15 139.538 149.262 139.538 149.262C139.057 149.31 138.382 149.31 137.601 149.134C137.435 149.102 136.91 148.958 136.324 148.669C128.364 144.714 124.354 141.495 124.354 141.495C114.367 133.487 109.381 129.483 105.461 125.736C100.234 120.739 97.2155 117.84 93.581 113.036C91.148 109.816 88.2044 105.412 85.4109 99.7909C89.8714 85.0729 94.3169 70.3549 98.7775 55.6209C113.451 55.5889 128.695 56.0693 144.464 57.2224C148.459 57.5107 152.409 57.831 156.314 58.1993C157.125 58.1993 158.311 58.3275 159.633 58.888C160.369 59.1923 161.09 59.6087 162.667 60.9059C165.715 63.3883 166.662 64.7656 167.112 64.4773C167.683 64.109 166.902 61.4344 166.737 60.8899C166.617 60.4735 166.211 59.1763 166.211 59.1763C166.211 59.1763 209.72 59.6888 217.274 59.7848C214.241 70.6432 211.207 81.5015 208.188 92.3598V92.3118Z" fill="#7879FF"/>
<path d="M99.7838 120.338C96.8702 117.263 93.7763 113.548 90.8026 109.096C89.5861 107.27 88.4898 105.492 87.5135 103.747C93.2206 104.259 98.9127 104.772 104.62 105.268C103.013 110.281 101.391 115.31 99.7838 120.322V120.338Z" fill="#10114A"/>
<path d="M141.581 136.386C140.274 140.71 138.937 144.954 137.586 149.134C137.45 149.102 137.24 149.07 136.97 148.99C135.633 148.653 134.672 148.125 134.206 147.853C131.173 146.155 128.394 144.297 128.394 144.297C126.727 143.192 125.871 142.616 124.715 141.751C123.303 140.694 122.131 139.749 121.26 139.012C122.612 135.841 123.964 132.67 125.315 129.483C131.323 129.803 137.33 130.108 143.338 130.428C142.767 132.398 142.166 134.384 141.566 136.37L141.581 136.386Z" fill="#FFB387"/>
<path d="M118.317 136.642L107.338 127.481C111.859 127.946 116.379 128.41 120.9 128.891C120.044 131.485 119.173 134.063 118.317 136.658V136.642Z" fill="#10114A"/>
<path d="M121.891 124.406C115.974 124.006 110.057 123.59 104.139 123.189C105.851 117.408 107.563 111.61 109.276 105.829C115.253 106.021 121.215 106.213 127.193 106.405C125.421 112.411 123.648 118.401 121.876 124.406H121.891Z" fill="#FFB387"/>
<path d="M110.837 167.071C110.267 167.631 109.441 168.4 108.434 169.265C107.684 169.922 107.008 170.466 106.737 170.69C104.59 172.372 101.796 173.109 100.715 173.381C98.3269 173.99 96.3745 174.006 92.4697 174.038C90.7275 174.054 89.541 174.006 88.5197 173.99C83.2032 173.861 80.1694 174.054 77.1356 173.974C72.9004 173.861 67.9292 173.669 62.3723 173.333C67.4036 156.597 72.4498 139.845 77.4811 123.109C88.0842 132.702 98.6723 142.311 109.276 151.905C112.55 154.867 115.824 157.846 119.113 160.809C116.364 162.907 113.616 164.989 110.852 167.087L110.837 167.071Z" fill="#7879FF"/>
<path d="M113.361 77.5137C107.083 77.3055 100.805 77.0813 94.5272 76.8731C96.4046 70.6592 98.2969 64.4453 100.174 58.2153C106.467 58.3435 112.76 58.4876 119.068 58.6157C117.16 64.9097 115.268 71.2037 113.361 77.4977V77.5137Z" fill="#10114A"/>
<path d="M136.009 78.5867C129.731 78.3785 123.453 78.1543 117.175 77.9461C119.053 71.7322 120.945 65.5183 122.822 59.2883C129.115 59.4165 135.408 59.5606 141.716 59.6887C139.808 65.9827 137.916 72.2767 136.009 78.5707V78.5867Z" fill="#FFB387"/>
<path d="M206.791 81.3733L187.958 80.7327C189.835 74.5188 191.728 68.3049 193.605 62.075C199.898 62.2031 206.191 62.3472 212.499 62.4753C210.591 68.7693 208.699 75.0633 206.791 81.3573V81.3733Z" fill="#10114A"/>
<path d="M183.077 80.6687C176.799 80.4605 170.521 80.2363 164.244 80.0281C166.121 73.8142 168.013 67.6003 169.891 61.3704C176.183 61.4985 182.476 61.6426 188.784 61.7707C186.877 68.0647 184.984 74.3587 183.077 80.6527V80.6687Z" fill="#FFB387"/>
<path d="M159.468 79.6917C153.19 79.4835 146.912 79.2593 140.634 79.0511C142.512 72.8372 144.404 66.6232 146.281 60.3933C151.012 60.4574 155.773 60.5535 160.564 60.6976C161.225 60.7136 161.886 60.7456 162.532 60.7617C162.652 60.8578 162.817 61.0019 163.012 61.146C163.192 61.3062 163.478 61.5304 163.823 61.8347C164.048 62.0269 164.289 62.2511 164.559 62.4913C162.862 68.2248 161.15 73.9422 159.453 79.6757L159.468 79.6917Z" fill="#10114A"/>
<path d="M145.14 126.184C138.862 125.976 132.584 125.752 126.307 125.543C128.184 119.33 130.076 113.116 131.954 106.886C138.246 107.014 144.539 107.158 150.847 107.286C148.94 113.58 147.047 119.874 145.14 126.168V126.184Z" fill="#10114A"/>
<path d="M119.098 160.793C119.113 161.097 118.707 161.321 117.896 161.834C117.22 162.266 116.68 162.635 116.334 162.891C116.725 161.706 117.115 160.537 117.506 159.352C117.671 159.496 117.926 159.704 118.227 159.96C118.932 160.537 119.083 160.617 119.098 160.793Z" fill="#10114A"/>
<path d="M175.628 105.284C169.35 105.076 163.072 104.852 156.794 104.644C158.672 98.4297 160.564 92.2158 162.441 85.9858C168.734 86.114 175.027 86.2581 181.335 86.3862C179.428 92.6802 177.535 98.9742 175.628 105.268V105.284Z" fill="#10114A"/>
<path d="M151.989 103.571C145.711 103.362 139.433 103.138 133.155 102.93C135.032 96.7161 136.925 90.5021 138.802 84.2722C145.095 84.4003 151.388 84.5445 157.696 84.6726C155.788 90.9666 153.896 97.2606 151.989 103.555V103.571Z" fill="#FFB387"/>
<path d="M129.416 101.985C123.138 101.777 116.86 101.552 110.582 101.344C112.459 95.1304 114.352 88.9165 116.229 82.6865C122.522 82.8146 128.815 82.9588 135.123 83.0869C133.215 89.3809 131.323 95.6749 129.416 101.969V101.985Z" fill="#10114A"/>
<path d="M106.782 100.656L87.9491 100.015C89.8264 93.8013 91.7188 87.5873 93.5961 81.3574C99.8889 81.4855 106.182 81.6297 112.49 81.7578C110.582 88.0518 108.69 94.3458 106.782 100.64V100.656Z" fill="#FFB387"/>
<path d="M105.446 148.605C102.532 148.461 99.6036 148.301 96.6899 148.157C97.2907 146.155 97.9064 144.153 98.5072 142.151C100.82 144.297 103.133 146.459 105.446 148.605Z" fill="#10114A"/>
<path d="M92.7099 146.475C86.4322 146.267 80.1544 146.043 73.8766 145.835C75.7539 139.621 77.6463 133.407 79.5236 127.177H81.9566C86.297 131.101 90.6374 135.024 94.9778 138.948C94.2268 141.447 93.4609 143.961 92.7099 146.459V146.475Z" fill="#FFB387"/>
<path d="M110.837 167.071C110.732 167.167 110.597 167.295 110.447 167.455C109.846 168.032 109.366 168.448 109.095 168.688C107.533 170.05 106.752 170.722 106.257 170.931C105.761 171.139 105.115 171.203 103.824 171.235C102.262 171.283 101.09 171.235 100.039 171.171C96.9903 171.011 97.7412 171.075 95.8339 170.963C94.6174 170.899 92.8752 170.786 90.7426 170.594C92.6199 164.38 94.5122 158.166 96.3896 151.937C99.5735 152.017 102.788 152.081 106.001 152.145C107.218 152.161 108.419 152.193 109.621 152.209C111.108 153.554 112.61 154.915 114.097 156.261C113.015 159.864 111.934 163.467 110.837 167.055V167.071Z" fill="#FFB387"/>
<path d="M85.6662 170.482L66.8329 169.842C68.7102 163.628 70.6026 157.414 72.4799 151.184C78.7727 151.312 85.0655 151.456 91.3733 151.584C89.466 157.878 87.5736 164.172 85.6662 170.466V170.482Z" fill="#10114A"/>
<path d="M184.128 177.721C181.14 177.913 176.649 177.849 171.423 176.376C169.711 175.895 163.463 173.989 156.945 168.592C154.181 166.302 146.987 160.361 148.324 156.052C148.624 155.075 149.3 154.403 149.901 153.954C152.634 152.801 155.383 151.648 158.116 150.511C171.227 143.705 184.339 136.882 197.45 130.076C193.019 145.963 188.574 161.85 184.143 177.737L184.128 177.721Z" fill="#7879FF"/>
<path d="M186.922 151.056C180.644 150.848 174.366 150.623 168.089 150.415C168.689 148.413 169.29 146.427 169.906 144.425C177.475 140.342 185.06 136.258 192.629 132.174C190.722 138.468 188.829 144.762 186.922 151.056Z" fill="#FFB387"/>
<path d="M161.495 149.71L159.738 149.646C160.444 149.278 161.15 148.91 161.841 148.557C161.72 148.942 161.6 149.326 161.495 149.71Z" fill="#10114A"/>
<path d="M180.569 172.933C174.396 172.372 168.239 171.796 162.066 171.235C163.763 165.614 165.46 160.008 167.172 154.387C173.465 154.515 179.758 154.659 186.066 154.787C184.234 160.825 182.416 166.879 180.584 172.917L180.569 172.933Z" fill="#10114A"/>
<path d="M157.08 167.423C152.574 164.765 149.6 161.898 148.804 160.12C148.189 158.759 148.174 157.51 148.174 157.51C148.174 157.222 148.174 156.181 148.579 155.268C149.646 152.849 152.92 152.609 153.07 152.609C155.878 152.673 158.687 152.737 161.495 152.785C160.023 157.67 158.552 162.539 157.065 167.423H157.08Z" fill="#FFB387"/>
<path d="M141.836 148.397C143.969 142.488 146.101 136.594 148.234 130.684C153.4 130.909 158.567 131.117 163.733 131.341C159.002 134.88 155.488 137.795 153.085 139.877C151.868 140.934 149.781 142.76 146.747 145.002C144.735 146.491 143.007 147.644 141.836 148.397Z" fill="#10114A"/>
<path d="M168.073 127.321C161.796 127.113 155.518 126.889 149.24 126.68C151.117 120.467 153.01 114.253 154.887 108.023C161.18 108.151 167.473 108.295 173.781 108.423C171.873 114.717 169.981 121.011 168.073 127.305V127.321Z" fill="#FFB387"/>
<path d="M195.152 105.14C190.301 104.98 185.45 104.804 180.599 104.644C182.476 98.4297 184.369 92.2158 186.246 85.9858C192.539 86.114 198.832 86.2581 205.139 86.3862C203.833 90.7264 202.526 95.0505 201.22 99.3906C200.439 100.159 199.643 100.944 198.832 101.713C197.6 102.882 196.384 104.019 195.167 105.124L195.152 105.14Z" fill="#FFB387"/>
<path d="M172.759 123.862C174.291 118.801 175.823 113.74 177.355 108.679C181.861 108.776 186.366 108.872 190.872 108.968C190.166 109.592 189.13 110.505 187.868 111.578C185.525 113.564 183.753 114.989 182.551 115.966C179.383 118.513 176.048 121.203 172.744 123.862H172.759Z" fill="#10114A"/>
<path d="M73.3359 14.2054C78.262 13.3406 85.1856 12.6199 93.4008 13.4207C95.5785 13.6289 101.661 14.3335 109.606 16.8159C133.726 24.3591 153.385 42.7125 152.739 43.8977C152.379 44.5383 144.689 39.5735 143.773 41.0309C142.827 42.5204 150.156 48.6862 149.27 50.2717C148.039 52.4818 132.855 40.8388 112.219 37.8439C104.77 36.7709 98.4771 37.0752 94.2719 37.5396C92.3195 33.728 89.2707 28.7312 84.66 23.7345C80.62 19.3623 76.58 16.3034 73.351 14.2214L73.3359 14.2054Z" fill="#7879FF"/>
<path d="M217.83 114.221C219.467 113.036 221.209 111.658 223.012 110.041C224.709 108.519 226.196 107.03 227.502 105.604C230.521 109.272 234.065 113.964 237.655 119.714C242.686 127.754 245.735 134.464 246.906 137.171C249.114 142.263 252.238 150.031 254.31 159.832C254.31 159.832 255.963 166.575 256.443 173.605C256.683 177.129 256.713 180.876 256.443 184.896C256.188 188.724 254.13 193.896 254.145 193.896C254.145 193.896 248.618 184.031 241.875 176.872C239.442 174.294 235.792 170.947 230.581 167.792C230.941 166.318 231.017 166.014 231.017 166.014C231.017 166.014 230.656 167.792 230.581 167.792C230.446 167.76 231.828 161.722 232.023 155.364C232.278 147.725 230.761 141.831 230.326 140.293C229.319 136.594 227.172 132.35 222.922 123.99C220.819 119.858 219.032 116.479 217.815 114.221H217.83Z" fill="#7879FF"/>
<path d="M199.688 191.558C200.649 196.219 202.106 199.854 203.322 202.352C203.743 203.217 204.869 205.507 206.716 208.246C209.044 211.689 211.417 214.252 213.279 216.013C204.659 213.547 197.57 210.712 192.268 208.342C177.565 201.728 168.088 194.905 164.139 191.895C154.647 184.656 143.593 175.991 143.488 165.373C143.488 164.669 143.443 160.889 145.02 160.232C147.122 159.352 150.066 164.893 156.314 170.594C159.573 173.573 162.502 175.319 168.359 178.826C178.226 184.72 186.246 187.602 188.168 188.291C192.809 189.925 196.804 190.95 199.703 191.574L199.688 191.558Z" fill="#7879FF"/>
<path d="M146.161 42.7287C146.341 42.4884 148.024 43.7696 150.802 45.147C152.544 46.0118 153.821 46.6524 155.142 46.9727C159.858 48.1098 164.063 44.8266 164.409 45.4833C164.709 46.0438 161.135 47.4852 160.834 50.2558C160.624 52.3218 162.441 53.1866 164.634 57.9111C165.46 59.6728 166.527 62.4114 166.106 62.6997C165.7 62.9719 164.394 60.7458 161.405 58.1513C158.972 56.0373 157.38 54.66 155.233 54.5159C152.079 54.3077 149.796 56.8861 149.255 56.2135C148.744 55.5889 151.102 53.7792 150.967 50.8964C150.892 49.2629 150.036 47.9656 148.895 46.252C147.393 43.9939 146.011 42.9369 146.176 42.7287H146.161Z" fill="#FF903B"/>
<path d="M117.686 148.862C118.197 148.237 120.915 150.367 126.367 152.689C128.905 153.778 131.248 154.771 133.35 155.172C142.362 156.853 150.727 148.077 151.268 148.878C151.508 149.246 149.646 150.735 147.273 153.682C144.659 156.933 142.121 160.12 141.761 164.332C141.445 167.984 142.887 170.979 143.909 173.077C146.357 178.121 149.691 180.508 149.315 181.004C148.955 181.501 145.891 178.81 140.454 176.712C137.616 175.623 135.078 174.662 131.758 174.886C128.83 175.078 126.607 176.087 124.399 177.112C121.621 178.394 121.306 179.034 117.416 181.164C114.547 182.734 111.003 184.672 110.567 184.015C110.087 183.31 113.886 180.363 118.031 174.486C121.771 169.185 124.399 165.469 124.159 161.017C123.799 154.195 116.92 149.774 117.686 148.813V148.862Z" fill="#FF903B"/>
<path d="M221.735 171.427L252.073 212.122C246.891 216.782 241.71 221.459 236.528 226.119C231.722 219.665 226.916 213.115 222.095 206.468C216.794 199.165 211.582 191.91 206.476 184.704C211.567 180.283 216.659 175.863 221.75 171.427H221.735Z" fill="#10114A"/>
<path d="M236.439 226.178C240.19 222.994 236.388 211.247 227.947 199.939C219.506 188.631 209.623 182.046 205.872 185.23C202.121 188.414 205.923 200.161 214.364 211.469C222.805 222.777 232.688 229.362 236.439 226.178Z" fill="#10114A"/>
<path d="M252.462 211.808C256.564 208.117 252.824 196.198 244.11 185.187C235.396 174.175 225.007 168.24 220.906 171.931C216.804 175.622 220.544 187.54 229.258 198.552C237.972 209.564 248.361 215.498 252.462 211.808Z" fill="#10114A"/>
<path d="M251.216 210.199C254.943 206.844 251.449 195.895 243.413 185.743C235.376 175.592 225.84 170.082 222.114 173.437C218.387 176.792 221.88 187.741 229.917 197.892C237.953 208.044 247.489 213.554 251.216 210.199Z" fill="#7879FF"/>
<path d="M247.72 203.479C250.126 201.309 247.508 193.79 241.873 186.686C236.237 179.582 229.718 175.583 227.311 177.754C224.905 179.925 227.523 187.443 233.158 194.547C238.794 201.651 245.313 205.65 247.72 203.479Z" fill="#10114A"/>
<path d="M38.9733 3.85962L26.1323 24.1189C42.7279 36.5147 59.3085 48.9265 75.9041 61.3223C80.4998 54.1154 85.0955 46.9086 89.6912 39.6857" fill="#FF903B"/>
<path d="M89.6585 39.9777C91.83 36.5252 82.2542 25.6186 68.2703 15.6172C54.2864 5.61569 41.1898 0.306702 39.0183 3.7592C36.8468 7.2117 46.4226 18.1183 60.4065 28.1198C74.3904 38.1212 87.487 43.4302 89.6585 39.9777Z" fill="#FF903B"/>
<path d="M76.6346 60.5471C78.8662 56.9992 69.3669 46.0351 55.4175 36.0583C41.468 26.0814 28.3507 20.8698 26.1191 24.4178C23.8875 27.9658 33.3868 38.9299 47.3362 48.9067C61.2857 58.8835 74.403 64.0951 76.6346 60.5471Z" fill="#FF903B"/>
<path d="M87.9464 38.7189C89.8314 35.7218 80.7829 25.7276 67.7358 16.3962C54.6888 7.06481 42.5839 1.92979 40.6988 4.92685C38.8138 7.92392 47.8624 17.9181 60.9094 27.2495C73.9565 36.581 86.0613 41.716 87.9464 38.7189Z" fill="#FFB387"/>
<path d="M77.7577 30.063C78.8896 28.2633 74.0107 22.6586 66.8603 17.5445C59.7099 12.4305 52.9958 9.74364 51.8638 11.5433C50.7318 13.3431 55.6107 18.9478 62.7611 24.0618C69.9115 29.1759 76.6257 31.8627 77.7577 30.063Z" fill="#FF903B"/>
<path d="M160.654 43.4492C171.182 36.5947 194.176 23.222 220.233 21.6845C244.353 20.2591 255.196 29.9003 256.518 31.5819C257.344 32.6389 259.957 36.0181 261.234 41.0149C267.317 64.8135 235.387 94.5058 224.498 104.611C211.838 116.383 197.33 125.015 191.217 128.826C183.182 133.823 182.912 133.391 170.161 141.206C161.645 146.427 152.439 152.337 151.748 151.328C151.238 150.559 155.773 146.267 155.293 145.658C154.947 145.226 152.514 147.308 148.069 148.685C146.792 149.086 145.08 149.614 144.885 149.214C144.554 148.525 149.03 145.61 154.151 141.895C154.857 141.382 160.008 137.282 170.311 129.067C178.586 122.468 181.83 119.842 183.888 118.192C188.153 114.733 190.346 112.955 193.004 110.665C197.555 106.773 200.844 103.987 204.659 100.111C206.191 98.5576 210.261 94.3616 215.382 87.8274C223.672 77.2894 228.313 71.3638 231.152 62.2351C233.014 56.2614 234.981 49.8073 232.023 44.7144C229.289 40.022 223.853 39.2052 216.749 38.1322C205.275 36.4185 192.899 38.1962 184.624 41.7516C180.989 43.3211 177.175 44.3461 173.57 45.9796C169.305 47.9014 165.325 50.0635 164.544 49.0065C163.853 48.0616 166.301 45.5472 165.46 44.0738C164.844 42.9848 162.787 43.0488 160.654 43.4332V43.4492Z" fill="#00008C"/>
<path d="M40.9108 50.3679C44.7706 53.587 50.2674 57.5107 57.4162 60.6817C63.3336 63.3082 68.7403 64.6855 73.0356 65.4383C73.8466 82.4304 78.8779 94.4098 82.227 100.928C88.8803 113.82 97.546 121.86 104.109 127.946C111.543 134.832 118.197 141.014 128.124 147.052C130.722 148.637 135.919 151.648 135.603 152.417C135.318 153.154 130.031 151.472 128.635 151.024C127.373 150.623 125.676 150.031 121.155 148.157C115.734 145.915 114.367 145.178 114.036 145.659C113.586 146.315 115.689 148.349 119.158 153.746C121.125 156.805 122.372 158.759 122.056 159.095C121.2 160.024 109.576 149.15 106.002 145.803C91.3734 132.094 84.0743 125.239 75.4086 114.493C71.2484 109.336 64.7153 101.168 57.8368 89.285C49.171 74.3427 44.0346 60.5696 40.9108 50.3839V50.3679Z" fill="#7879FF"/>
<path d="M68.9655 111.514C66.908 113.948 63.9042 117.52 60.3599 121.908C53.226 130.748 49.0658 135.569 45.942 140.55C41.8419 147.068 26.2525 168.945 32.9058 181.18C39.2887 192.92 62.6877 189.797 67.6439 189.14C78.4122 187.715 86.5824 183.535 94.0166 179.659C110.567 171.027 120.074 161.129 121.501 162.747C122.687 164.092 117.115 172.212 115.268 174.902C110.943 181.196 107.939 183.679 108.57 184.896C109.05 185.809 111.603 186.001 121.366 182.237C120.479 183.487 119.158 185.248 117.371 187.17C115.433 189.252 113.391 191.078 110.928 192.936C100.114 201.055 87.6487 206.869 87.6487 206.869C80.4398 210.216 74.0418 213.195 65.1208 215.501C55.2685 218.031 45.0709 220.674 32.6955 218.176C27.6192 217.151 7.50929 213.099 1.48682 197.404C0.0450331 193.624 -1.24657 186.818 2.22273 174.486C12.4654 138.179 49.3061 112.763 63.4237 103.843C64.3848 105.252 65.3911 106.693 66.4574 108.151C67.2985 109.304 68.1245 110.425 68.9655 111.498V111.514Z" fill="#00008C"/>
<path d="M140.169 56.3256C142.422 53.523 144.659 52.514 145.981 52.0816C147.678 51.5371 149.646 51.3929 149.856 51.9535C150.021 52.4019 148.925 52.9144 148.474 54.3558C148.189 55.3007 148.309 56.2135 148.474 56.8541C147.303 56.726 146.101 56.6139 144.855 56.5338C143.248 56.4217 141.686 56.3577 140.169 56.3096V56.3256Z" fill="#00008C"/>
<path d="M163.147 53.3306C163.343 52.9943 165.46 53.731 173.12 57.975H165.896C165.625 57.4625 165.25 56.7579 164.754 55.9411C163.613 54.0673 163.027 53.5388 163.147 53.3306Z" fill="#7879FF"/>
<path d="M80.665 94.0734C81.2207 95.4828 81.7914 96.764 82.3771 97.9491C83.1281 95.723 84.0142 94.0734 84.72 92.9524C85.8314 91.1907 87.4534 89.2048 86.8677 88.2759C86.8677 88.2599 86.8527 88.2439 86.8527 88.2439C86.5223 87.7794 85.1556 87.6033 79.3884 90.454C79.7489 91.5911 80.1694 92.8082 80.665 94.0734Z" fill="#00008C"/>
</g>
<defs>
<clipPath id="clip0_298_618">
<rect width="262" height="227" fill="white"/>
</clipPath>
</defs>
</svg>
