<svg width="40" height="40" viewBox="0 0 40 40" fill="none" xmlns="http://www.w3.org/2000/svg">
<g clip-path="url(#clip0_1063_1937)">
<path d="M31.6667 3.33333H24.6917C24.0083 1.4 22.175 0 20 0C17.825 0 15.9917 1.4 15.3083 3.33333H8.33333C6.49167 3.33333 5 4.825 5 6.66667V33.3333C5 35.175 6.49167 36.6667 8.33333 36.6667H31.6667C33.5083 36.6667 35 35.175 35 33.3333V6.66667C35 4.825 33.5083 3.33333 31.6667 3.33333ZM20 3.33333C20.9167 3.33333 21.6667 4.075 21.6667 5C21.6667 5.925 20.9167 6.66667 20 6.66667C19.0833 6.66667 18.3333 5.925 18.3333 5C18.3333 4.075 19.0833 3.33333 20 3.33333ZM31.6667 33.3333H8.33333V6.66667H11.6667V11.6667H28.3333V6.66667H31.6667V33.3333Z" fill="white"/>
</g>
<defs>
<clipPath id="clip0_1063_1937">
<rect width="40" height="40" fill="white"/>
</clipPath>
</defs>
</svg>
