<svg width="37" height="38" viewBox="0 0 37 38" fill="none" xmlns="http://www.w3.org/2000/svg">
<g clip-path="url(#clip0_1063_1305)">
<path d="M12.3333 15.8337H7.70833V11.0837H4.625V15.8337H0V19.0003H4.625V23.7503H7.70833V19.0003H12.3333V15.8337ZM27.75 17.417C30.3015 17.417 32.3596 15.2874 32.3596 12.667C32.3596 10.0466 30.3015 7.91699 27.75 7.91699C27.2567 7.91699 26.7865 7.99616 26.3394 8.14658C27.2104 9.42908 27.7346 10.9887 27.7346 12.667C27.7346 14.3453 27.2104 15.9049 26.3394 17.1874C26.7865 17.3378 27.2567 17.417 27.75 17.417ZM20.0417 17.417C22.5931 17.417 24.6512 15.2874 24.6512 12.667C24.6512 10.0466 22.5931 7.91699 20.0417 7.91699C17.4902 7.91699 15.4167 10.0466 15.4167 12.667C15.4167 15.2874 17.4902 17.417 20.0417 17.417ZM30.2475 20.837C31.5271 21.9849 32.375 23.4653 32.375 25.3337V28.5003H37V25.3337C37 22.8953 33.3385 21.3991 30.2475 20.837ZM20.0417 20.5837C16.9583 20.5837 10.7917 22.167 10.7917 25.3337V28.5003H29.2917V25.3337C29.2917 22.167 23.125 20.5837 20.0417 20.5837Z" fill="#FF913C"/>
</g>
<defs>
<clipPath id="clip0_1063_1305">
<rect width="37" height="38" fill="white"/>
</clipPath>
</defs>
</svg>
