<svg width="20" height="25" viewBox="0 0 32 33" fill="none" xmlns="http://www.w3.org/2000/svg">
<path d="M22.7708 20.1667H21.3554L20.8538 19.6717C22.6096 17.5817 23.6667 14.8683 23.6667 11.9167C23.6667 5.335 18.4529 0 12.0208 0C5.58875 0 0.375 5.335 0.375 11.9167C0.375 18.4983 5.58875 23.8333 12.0208 23.8333C14.9054 23.8333 17.5571 22.7517 19.5996 20.955L20.0833 21.4683V22.9167L29.0417 32.065L31.7113 29.3333L22.7708 20.1667ZM12.0208 20.1667C7.55958 20.1667 3.95833 16.4817 3.95833 11.9167C3.95833 7.35167 7.55958 3.66667 12.0208 3.66667C16.4821 3.66667 20.0833 7.35167 20.0833 11.9167C20.0833 16.4817 16.4821 20.1667 12.0208 20.1667Z" fill="#FF913C"/>
</svg>
