<svg width="68" height="68" viewBox="0 0 68 68" fill="none" xmlns="http://www.w3.org/2000/svg">
<g filter="url(#filter0_d_606_1943)">
<path d="M34.0002 55.0001C30.2204 55.0107 26.4883 54.1555 23.0903 52.5C21.8466 51.8951 20.6551 51.1885 19.5277 50.3875L19.1852 50.1375C16.0848 47.849 13.5499 44.8806 11.7752 41.46C9.93959 37.9197 8.98752 33.9879 9.00012 30C9.00012 16.1929 20.1931 5 34.0002 5C47.8074 5 59.0004 16.1929 59.0004 30C59.0128 33.986 58.0617 37.9159 56.2277 41.455C54.4555 44.8736 51.9242 47.841 48.8278 50.13C47.6597 50.985 46.4201 51.7378 45.1227 52.38L44.9228 52.48C41.5226 54.1443 37.7859 55.0064 34.0002 55.0001ZM34.0002 42.5C30.2539 42.4927 26.8194 44.5851 25.1077 47.9175C30.7112 50.693 37.2893 50.693 42.8927 47.9175V47.905C41.179 44.5762 37.7443 42.4885 34.0002 42.5ZM34.0002 37.5C39.4155 37.5071 44.4088 40.4253 47.0728 45.14L47.1103 45.1075L47.1453 45.0775L47.1028 45.115L47.0778 45.135C53.4002 39.6728 55.661 30.8558 52.7469 23.0253C49.8328 15.1947 42.358 10.0008 34.0028 10.0008C25.6475 10.0008 18.1727 15.1947 15.2586 23.0253C12.3445 30.8558 14.6053 39.6728 20.9277 45.135C23.5934 40.4226 28.5862 37.5066 34.0002 37.5ZM34.0002 35C28.4774 35 24.0002 30.5228 24.0002 25C24.0002 19.4772 28.4774 15 34.0002 15C39.5231 15 44.0003 19.4772 44.0003 25C44.0003 27.6522 42.9467 30.1957 41.0713 32.0711C39.196 33.9464 36.6524 35 34.0002 35ZM34.0002 20C31.2388 20 29.0002 22.2386 29.0002 25C29.0002 27.7614 31.2388 30 34.0002 30C36.7617 30 39.0002 27.7614 39.0002 25C39.0002 22.2386 36.7617 20 34.0002 20Z" fill="white"/>
</g>
<defs>
<filter id="filter0_d_606_1943" x="0" y="0" width="68" height="68" filterUnits="userSpaceOnUse" color-interpolation-filters="sRGB">
<feFlood flood-opacity="0" result="BackgroundImageFix"/>
<feColorMatrix in="SourceAlpha" type="matrix" values="0 0 0 0 0 0 0 0 0 0 0 0 0 0 0 0 0 0 127 0" result="hardAlpha"/>
<feOffset dy="4"/>
<feGaussianBlur stdDeviation="2"/>
<feComposite in2="hardAlpha" operator="out"/>
<feColorMatrix type="matrix" values="0 0 0 0 0 0 0 0 0 0 0 0 0 0 0 0 0 0 0.25 0"/>
<feBlend mode="normal" in2="BackgroundImageFix" result="effect1_dropShadow_606_1943"/>
<feBlend mode="normal" in="SourceGraphic" in2="effect1_dropShadow_606_1943" result="shape"/>
</filter>
</defs>
</svg>
