<svg width="35" height="35" viewBox="0 0 46 45" fill="none" xmlns="http://www.w3.org/2000/svg">
<path d="M12.308 19.7107C16.6083 19.7107 20.0945 16.2245 20.0945 11.9242C20.0945 7.62382 16.6083 4.1377 12.308 4.1377C8.00761 4.1377 4.52148 7.62382 4.52148 11.9242C4.52148 16.2245 8.00761 19.7107 12.308 19.7107Z" stroke="white" stroke-width="1.97418" stroke-linecap="round" stroke-linejoin="round"/>
<path d="M23 44V1" stroke="white" stroke-width="1.97418" stroke-linecap="round" stroke-linejoin="round"/>
<path d="M1.5 22.6162H44.5" stroke="white" stroke-width="1.97418" stroke-linecap="round" stroke-linejoin="round"/>
<path d="M12.3083 16.3402C14.7473 16.3402 16.7245 14.363 16.7245 11.924C16.7245 9.48502 14.7473 7.50781 12.3083 7.50781C9.8693 7.50781 7.89209 9.48502 7.89209 11.924C7.89209 14.363 9.8693 16.3402 12.3083 16.3402Z" stroke="white" stroke-width="1.97418" stroke-linecap="round" stroke-linejoin="round"/>
<path d="M1.5 21C1.5 9.95431 10.4543 1 21.5 1H24.5C35.5457 1 44.5 9.95431 44.5 21V24C44.5 35.0457 35.5457 44 24.5 44H21.5C10.4543 44 1.5 35.0457 1.5 24V21Z" stroke="white" stroke-width="1.97418" stroke-linecap="round" stroke-linejoin="round"/>
</svg>
